<?xml version="1.0" encoding="UTF-8" standalone="no"?>
<!-- Created with Inkscape (http://www.inkscape.org/) -->

<svg
   xmlns:dc="http://purl.org/dc/elements/1.1/"
   xmlns:cc="http://creativecommons.org/ns#"
   xmlns:rdf="http://www.w3.org/1999/02/22-rdf-syntax-ns#"
   xmlns:svg="http://www.w3.org/2000/svg"
   xmlns="http://www.w3.org/2000/svg"
   xmlns:sodipodi="http://sodipodi.sourceforge.net/DTD/sodipodi-0.dtd"
   xmlns:inkscape="http://www.inkscape.org/namespaces/inkscape"
   width="324.875"
   height="437.21875"
   id="svg3865"
   version="1.1"
   inkscape:version="0.48.3.1 r9886"
   sodipodi:docname="Issue1-1a.svg">
  <defs
     id="defs3867" />
  <sodipodi:namedview
     id="base"
     pagecolor="#ffffff"
     bordercolor="#666666"
     borderopacity="1.0"
     inkscape:pageopacity="0.0"
     inkscape:pageshadow="2"
     inkscape:zoom="0.35"
     inkscape:cx="36.144482"
     inkscape:cy="202.6678"
     inkscape:document-units="px"
     inkscape:current-layer="layer1"
     showgrid="false"
     inkscape:window-width="773"
     inkscape:window-height="434"
     inkscape:window-x="0"
     inkscape:window-y="59"
     inkscape:window-maximized="0"
     fit-margin-top="0"
     fit-margin-left="0"
     fit-margin-right="0"
     fit-margin-bottom="0" />
  <metadata
     id="metadata3870">
    <rdf:RDF>
      <cc:Work
         rdf:about="">
        <dc:format>image/svg+xml</dc:format>
        <dc:type
           rdf:resource="http://purl.org/dc/dcmitype/StillImage" />
        <dc:title></dc:title>
      </cc:Work>
    </rdf:RDF>
  </metadata>
  <g
     inkscape:label="Layer 1"
     inkscape:groupmode="layer"
     id="layer1"
     transform="translate(-0.375,-613.90625)">
    <path
       inkscape:connector-curvature="0"
       style="fill:none;stroke:#000000;stroke-width:1;stroke-opacity:1"
       d="m 50.036228,614.43561 0.0194,16.44608 -49.15904016,0.74001 0.0493,27.60758 10.09332016,-0.18178 -0.30489,70.23708 -9.7310802,-0.20556 0.36983,70.77729 9.4864602,0.3701 -0.44237,69.86648 -9.1020902,0.83645 -0.43373996,115.86073 0.47480996,6.70662 0.84285,3.6926 1.95618,6.12541 15.0974902,-8.54147 9.70113,14.24567 -13.80514,10.7182 8.01962,6.9855 10.25879,5.6909 8.07623,3.0751 15.06514,3.5601 24.027975,4.1667 19.823977,3.7446 16.05904,1.4944 17.84243,1.5285 18.68765,0.6247 0.22106,-16.7355 17.59854,-0.1517 1.09592,16.8477 17.15292,-0.387 c 0,0 15.62468,-0.7789 16.41676,-0.8939 0.7921,-0.115 18.93285,-2.3226 18.93285,-2.3226 l 14.24485,-2.2595 14.53011,-2.1439 20.46608,-4.1563 12.95787,-3.3419 10.05206,-4.2139 8.04465,-5.3349 5.91038,-5.576 -13.88149,-10.2285 8.98113,-14.71517 15.90217,9.87937 2.18697,-8.45295 0.83305,-11.53436 0.0996,-8.22669 -0.44475,-58.08017 0.07,-42.71378 -0.33845,-12.90216 -9.66653,-0.14519 -0.74835,-194.08376 10.33481,-0.43995 -0.68165,-36.21624 -47.59861,-0.28156 -0.64522,-17.39439 -225.000042,0.033 z M 161.11154,718.43137 c 22.90674,-0.76734 42.11352,17.61965 42.89964,41.08675 0.78611,23.46711 -17.14605,43.12948 -40.0528,43.89683 -22.90674,0.76735 -42.11455,-17.65088 -42.90067,-41.11799 -0.78613,-23.4671 17.14709,-43.09824 40.05383,-43.86559 z M 23.346648,789.36475 c 3.61033,-0.12094 6.63029,2.847 6.75776,6.65248 0.12749,3.80548 -2.68604,7.00011 -6.29637,7.12104 -3.61032,0.12095 -6.63133,-2.87823 -6.7588,-6.68371 -0.12748,-3.80547 2.68708,-6.96887 6.29741,-7.08981 z M 123.52937,807.1456 c 5.61065,-0.18794 10.30114,4.15499 10.48746,9.71683 0.18631,5.56186 -4.20198,10.24017 -9.81262,10.42813 -5.61065,0.18795 -10.30218,-4.18622 -10.48849,-9.74806 -0.18632,-5.56186 4.20301,-10.20895 9.81365,-10.3969 z m 155.21994,-0.69715 c 5.54024,-0.18559 10.18048,4.28705 10.37089,9.97088 0.19039,5.68382 -4.14117,10.42573 -9.68142,10.61132 -5.54025,0.18559 -10.17943,-4.25581 -10.36984,-9.93964 -0.1904,-5.68382 4.14012,-10.45697 9.68037,-10.64256 z m -155.3325,170.01459 c 5.59844,-0.18754 10.31126,4.45715 10.50942,10.37271 0.19817,5.91556 -4.19325,10.86523 -9.79169,11.05278 -5.59844,0.18754 -10.28002,-4.45819 -10.47819,-10.37376 -0.19817,-5.91556 4.16203,-10.86419 9.76046,-11.05173 z m 155.35966,0.67394 c 5.65943,-0.18958 10.39634,4.19674 10.58428,9.80739 0.18795,5.61064 -4.24374,10.33537 -9.90317,10.52495 -5.65943,0.18959 -10.39738,-4.22797 -10.58533,-9.83862 -0.18795,-5.61063 4.2448,-10.30414 9.90422,-10.49372 z"
       id="path3066" />
  </g>
</svg>
