<?xml version="1.0" encoding="UTF-8" standalone="no"?>
<!-- Created with Inkscape (http://www.inkscape.org/) -->

<svg
   xmlns:dc="http://purl.org/dc/elements/1.1/"
   xmlns:cc="http://creativecommons.org/ns#"
   xmlns:rdf="http://www.w3.org/1999/02/22-rdf-syntax-ns#"
   xmlns:svg="http://www.w3.org/2000/svg"
   xmlns="http://www.w3.org/2000/svg"
   xmlns:sodipodi="http://sodipodi.sourceforge.net/DTD/sodipodi-0.dtd"
   xmlns:inkscape="http://www.inkscape.org/namespaces/inkscape"
   width="338.78125"
   height="445.84375"
   id="svg3780"
   version="1.1"
   inkscape:version="0.48.3.1 r9886"
   sodipodi:docname="New document 5">
  <defs
     id="defs3782" />
  <sodipodi:namedview
     id="base"
     pagecolor="#ffffff"
     bordercolor="#666666"
     borderopacity="1.0"
     inkscape:pageopacity="0.0"
     inkscape:pageshadow="2"
     inkscape:zoom="0.35"
     inkscape:cx="207.25"
     inkscape:cy="154.35657"
     inkscape:document-units="px"
     inkscape:current-layer="layer1"
     showgrid="false"
     fit-margin-top="0"
     fit-margin-left="0"
     fit-margin-right="0"
     fit-margin-bottom="0"
     inkscape:window-width="511"
     inkscape:window-height="434"
     inkscape:window-x="0"
     inkscape:window-y="59"
     inkscape:window-maximized="0" />
  <metadata
     id="metadata3785">
    <rdf:RDF>
      <cc:Work
         rdf:about="">
        <dc:format>image/svg+xml</dc:format>
        <dc:type
           rdf:resource="http://purl.org/dc/dcmitype/StillImage" />
        <dc:title></dc:title>
      </cc:Work>
    </rdf:RDF>
  </metadata>
  <g
     inkscape:label="Layer 1"
     inkscape:groupmode="layer"
     id="layer1"
     transform="translate(-167.75,-240.875)">
    <path
       inkscape:connector-curvature="0"
       style="fill:none;stroke:#000000;stroke-width:1px;stroke-linecap:butt;stroke-linejoin:miter;stroke-opacity:1"
       d="m 285.25218,241.36885 -0.0312,17.78125 -116.75,-1.03125 0,16.40625 9.8125,0 0.0937,174.03125 -9.78125,-0.1875 -0.21875,139.65625 -0.125,4.71875 1.25,6.53125 1.25,8.125 1.5,7.8125 2.0625,7.40625 1.53125,3.75 3.96875,7.5 2.4375,-0.90625 3.09375,-2.34375 7.40625,-7.875 0.6875,0 9.09375,10.15625 3.5625,3.59375 -12.28125,12.5 4.34375,3.21875 5.6875,3.65625 7.6875,4.5625 10.65625,5.40625 4.75,1.78125 11.34375,4.40625 12.9375,3.59375 21.6875,4.84375 17.53125,2.71875 16.5625,1.75 10.0625,0.375 9.4375,0.28125 0.625,-17.15625 18.65625,-0.0312 0.375,17.8125 13.5625,-0.125 13.9375,-0.9375 22.625,-2.84375 13.125,-2.21875 16.15625,-3.96875 15.03125,-4.5625 14.25,-5.65625 11.5,-5.9375 11.03125,-6.8125 2.125,-2.3125 -0.0312,-0.65625 -3.15625,-3.40625 -8.875,-8.65625 c 0,0 11.84058,-13.90752 12.15625,-13.78125 0.31568,0.12627 12.875,12 12.875,12 l 4.6875,-8.46875 4.15625,-10.46875 2.15625,-14.03125 1.125,-11.21875 0.78125,-12.375 0.25,-36.5 -0.0937,-92.6875 -10.03125,0 0.15625,-173.21875 10.375,-0.0625 -0.0312,-17.0625 -116.2814,-0.2188 0.0312,-17.6875 -40.25,-0.34375 -0.0625,27.78125 -23.84375,-0.28125 0.28125,-27.78125 -40.625,-0.34375 z m -65.875,74.25 236.46875,2.25 -0.15625,202.5625 -25.4375,-0.0937 -9.71875,10.1875 0,41.375 -36.15625,35.125 -95.875,-1.0625 -35.46875,-36.1875 0.40625,-28.5 0,-12.125 -2.21875,-1.625 -1.0625,-2.09375 -5.53125,-5.96875 -2.5,-0.90625 -23.46875,-0.1875 0.71875,-202.75 z"
       id="path2996" />
  </g>
</svg>
